HIERARCHY
ROOT Hips
{
  OFFSET 65.764 101.053 342.483
  CHANNELS 6 Xposition Yposition Zposition Zrotation Xrotation Yrotation
  JOINT RightUpLeg
  {
    OFFSET -8.9458 -8.66707 0.101652
    CHANNELS 3 Zrotation Xrotation Yrotation
    JOINT RightLeg
    {
      OFFSET 0 -44.4227 1.3727
      CHANNELS 3 Zrotation Xrotation Yrotation
      JOINT RightFoot
      {
        OFFSET 0.253549 -42.0924 -1.46059
        CHANNELS 3 Zrotation Xrotation Yrotation
        JOINT RightToes
        {
          OFFSET 0.04 -4.41509 8.4991
          CHANNELS 3 Zrotation Xrotation Yrotation
          End Site
          {
            OFFSET -0.08 -0.137448 9.77979
          }
        }
      }
    }
  }
  JOINT Spine
  {
    OFFSET 0 11.8905 0
    CHANNELS 3 Zrotation Xrotation Yrotation
    JOINT Spine1
    {
      OFFSET 0 25.6574 0.127663
      CHANNELS 3 Zrotation Xrotation Yrotation
      JOINT HEad
      {
        OFFSET 0 8.73416 0.011341
        CHANNELS 3 Zrotation Xrotation Yrotation
        End Site
        {
          OFFSET -0.29 12.7742 2.51395
        }
      }
      JOINT LeftShoulder1
      {
        OFFSET 8.99 -0.362252 -0.22
        CHANNELS 3 Zrotation Xrotation Yrotation
        JOINT LeftArm
        {
          OFFSET 10.2827 -0.00338 0.322123
          CHANNELS 3 Zrotation Xrotation Yrotation
          JOINT LeftForeArm
          {
            OFFSET 32.7669 0.099144 -1.42434
            CHANNELS 3 Zrotation Xrotation Yrotation
            JOINT LeftHand
            {
              OFFSET 27.5643 0.085362 1.02216
              CHANNELS 3 Zrotation Xrotation Yrotation
              End Site
              {
                OFFSET 16.7443 -0.6 1.50291
              }
            }
          }
        }
      }
      JOINT RightShoulder
      {
        OFFSET -8.99 -0.362252 -0.22
        CHANNELS 3 Zrotation Xrotation Yrotation
        JOINT RightArm
        {
          OFFSET -10.2827 -0.00338 0.322123
          CHANNELS 3 Zrotation Xrotation Yrotation
          JOINT RightForeArm
          {
            OFFSET -32.8971 0.099144 -1.42434
            CHANNELS 3 Zrotation Xrotation Yrotation
            JOINT RightHand
            {
              OFFSET -27.4921 0.085362 1.02216
              CHANNELS 3 Zrotation Xrotation Yrotation
              End Site
              {
                OFFSET -16.6312 -0.6 1.50291
              }
            }
          }
        }
      }
    }
  }
  JOINT LeftUpLeg
  {
    OFFSET 8.9458 -8.66707 0.101652
    CHANNELS 3 Zrotation Xrotation Yrotation
    JOINT LeftLeg
    {
      OFFSET 0 -44.4227 1.3727
      CHANNELS 3 Zrotation Xrotation Yrotation
      JOINT LeftFoot
      {
        OFFSET -0.253549 -42.0924 -1.46059
        CHANNELS 3 Zrotation Xrotation Yrotation
        JOINT LeftToes
        {
          OFFSET -0.04 -4.41509 8.4991
          CHANNELS 3 Zrotation Xrotation Yrotation
          End Site
          {
            OFFSET 0.08 -0.047448 9.77979
          }
        }
      }
    }
  }
}
MOTION
Frames:	7
Frame Time:	0.0166667
0	103.873	0	2.11394	2.98669	149.857	-0.788347	1.82802	11.6839	0.695877	9.71395	-12.1549	4.0718	-7.53153	-5.78504	0.0462048	0.000533964	0.662642	0.0627243	-3.2958	-0.721579	0.0839839	-6.58936	-1.44337	1.34047	11.6983	22.6939	-7.95E-16	-1.59E-15	3.18E-15	-0.780522	-16.1322	-7.02591	0.654976	14.0746	-8.06344	1.93645	13.5195	7.85377	-7.95E-16	-1.59E-15	3.18E-15	-3.48804	-15.0513	-4.79419	2.15575	15.7422	4.55622	0.357568	14.6376	-8.63148	1.23929	5.0307	26.9738	0.743332	9.72224	3.64454	-7.70294	-16.7423	-9.6028	1.48E-14	3.18E-14	6.36E-15
0.02	103.876	0.015	2.10607	2.97388	149.852	-0.787528	1.81899	11.6539	0.694678	9.70383	-12.1234	4.06913	-7.52728	-5.59184	0.0462048	0.000533964	0.662642	0.0614851	-3.29622	-0.719762	0.0815994	-6.59018	-1.4398	1.35433	11.7356	22.7057	1.59E-15	-1.59E-15	0.00E+00	-0.760794	-16.1064	-7.02765	0.650332	14.0782	-8.12665	1.93414	13.5348	7.81637	1.59E-15	-1.59E-15	0.00E+00	-3.49955	-15.0387	-4.77303	2.17933	15.7477	4.5513	0.322382	14.6207	-8.60377	1.24523	5.01479	27.0242	0.752782	9.72374	3.59901	-7.62631	-16.7968	-8.93704	1.40E-14	3.18E-14	4.77E-15
0.0274	103.876	0.005	2.0943	2.96388	149.845	-0.779486	1.80778	11.6334	0.690776	9.6952	-12.0965	4.05714	-7.53689	-5.79037	0.0462048	0.000533964	0.662642	0.0581097	-3.29651	-0.719135	0.0750915	-6.59077	-1.43746	1.3763	11.767	22.6995	7.95E-16	-3.18E-15	-3.18E-15	-0.752317	-16.0826	-7.03166	0.656419	14.0929	-8.18856	1.93328	13.5304	7.79175	7.95E-16	-3.18E-15	-3.18E-15	-3.51737	-15.0554	-4.75845	2.21248	15.7562	4.55148	0.326317	14.6143	-8.57367	1.23953	4.99838	27.0424	0.755451	9.7261	3.58772	-7.63676	-16.7917	-9.04977	1.35E-14	3.26E-14	7.16E-15
0.051	103.876	0.015	2.08256	2.94873	149.833	-0.771843	1.79882	11.6397	0.688859	9.69087	-12.0829	4.059	-7.55193	-5.74566	0.0462048	0.000533964	0.662642	0.0539721	-3.2967	-0.718878	0.0701785	-6.59109	-1.43361	1.39682	11.787	22.6864	7.95E-16	0.00E+00	-3.18E-15	-0.741551	-16.0644	-7.04995	0.658146	14.1139	-8.22551	1.94577	13.5137	7.78596	7.95E-16	0.00E+00	-3.18E-15	-3.52632	-15.0768	-4.7413	2.22703	15.7768	4.55498	0.357155	14.6094	-8.5554	1.24088	4.978	27.0318	0.753104	9.73017	3.60474	-7.62752	-16.8047	-8.96966	1.45E-14	3.42E-14	3.98E-15
0.0507	103.875	-0.002	2.06587	2.94936	149.826	-0.766402	1.77874	11.6524	0.692102	9.69285	-12.0965	4.03211	-7.56122	-5.98141	0.0462048	0.000533964	0.662642	0.0508325	-3.29683	-0.718915	0.0610366	-6.59121	-1.42998	1.40976	11.8035	22.6661	-1.77E-31	-3.18E-15	-3.18E-15	-0.755423	-16.0683	-7.06901	0.670758	14.1473	-8.25824	1.94923	13.5183	7.785	-1.77E-31	-3.18E-15	-3.18E-15	-3.54243	-15.076	-4.71914	2.22097	15.8042	4.57224	0.385956	14.6099	-8.53764	1.23599	4.97242	27.0153	0.751937	9.73806	3.61279	-7.62164	-16.825	-8.89288	1.31E-14	3.26E-14	7.16E-15
0.0744	103.875	0.018	2.06596	2.94403	149.817	-0.772972	1.78444	11.6672	0.695168	9.69561	-12.1122	4.03148	-7.57966	-5.89905	0.0462048	0.000533964	0.662642	0.0491962	-3.29691	-0.719169	0.0624499	-6.59119	-1.42742	1.41672	11.8093	22.6371	-7.95E-16	-1.59E-15	0.00E+00	-0.773527	-16.087	-7.08258	0.684591	14.1894	-8.28507	1.96019	13.5363	7.782	-7.95E-16	-1.59E-15	0.00E+00	-3.56358	-15.0491	-4.68779	2.2039	15.8532	4.58892	0.375644	14.6174	-8.50779	1.2498	4.96881	27.025	0.755631	9.74269	3.59278	-7.64491	-16.8252	-9.04385	1.48E-14	3.18E-14	3.18E-15
0.0845	103.874	0.016	2.06319	2.94115	149.808	-0.75608	1.78252	11.6868	0.69695	9.69359	-12.1284	4.02101	-7.57825	-5.88783	0.0462048	0.000533964	0.662642	0.0482608	-3.29696	-0.719565	0.0655801	-6.59108	-1.42563	1.43225	11.8102	22.601	2.65E-31	4.77E-15	-3.18E-15	-0.787978	-16.1134	-7.08454	0.693376	14.2312	-8.31532	1.95944	13.5384	7.76986	2.65E-31	4.77E-15	-3.18E-15	-3.57791	-15.0134	-4.65961	2.18624	15.9098	4.61229	0.337003	14.6272	-8.49228	1.24627	4.96554	27.0371	0.758369	9.74353	3.57918	-7.69945	-16.8042	-9.52347	1.54E-14	3.18E-14	6.36E-15
